# xmcd
#
# Track frame offsets:
#	150
#	17572
#	38820
#	60072
#	78107
#	110795
#	131565
#	153015
#	171845
#	194275
#
# Disc length: 2858 seconds
#
# Revision: 1
# Processed by: cddbd v1.4PL0 Copyright (c) Steve Scherf et al.
# Submitted via: audiograbber 1.81.01
#
DISCID=6e0b280a
DTITLE=Artie 'Bluesboy' White - Can We Get Together
DYEAR=1999
DGENRE=Blues
TTITLE0=Can We Get Together
TTITLE1=How Long
TTITLE2=When You Leave Don't Take Nothin
TTITLE3=I Can't Afford To Be Broke
TTITLE4=Lonely Lady
TTITLE5=Back At The Hotel
TTITLE6=Made To Order
TTITLE7=My Dessert
TTITLE8=No More
TTITLE9=One More Time
EXTD=
EXTT0=
EXTT1=
EXTT2=
EXTT3=
EXTT4=
EXTT5=
EXTT6=
EXTT7=
EXTT8=
EXTT9=
PLAYORDER=
